<svg width="48" height="48" viewBox="0 0 48 48" fill="none" xmlns="http://www.w3.org/2000/svg">
<rect opacity="0.2" width="48" height="48" rx="16" fill="#0086FF"/>
<path d="M18.46 13.3499C18.5861 13.2955 18.6997 13.2157 18.7936 13.1154C18.8876 13.0152 18.9598 12.8966 19.0059 12.7672C19.052 12.6378 19.0709 12.5002 19.0615 12.3632C19.0521 12.2261 19.0145 12.0925 18.9511 11.9706C18.8878 11.8487 18.8 11.7411 18.6932 11.6547C18.5865 11.5682 18.463 11.5047 18.3306 11.468C18.1982 11.4314 18.0597 11.4224 17.9237 11.4416C17.7876 11.4609 17.657 11.508 17.54 11.5799C15.2671 12.7621 13.3622 14.5453 12.0327 16.7352C10.7032 18.9252 10.0001 21.438 10 23.9999C10 24.2652 10.1054 24.5195 10.2929 24.707C10.4804 24.8946 10.7348 24.9999 11 24.9999C11.2652 24.9999 11.5196 24.8946 11.7071 24.707C11.8946 24.5195 12 24.2652 12 23.9999C11.999 21.8036 12.6009 19.649 13.74 17.7711C14.879 15.8932 16.5117 14.3639 18.46 13.3499Z" fill="#0086FF"/>
<path d="M32.3099 32.66C30.0752 34.8051 27.0976 36.0029 23.9999 36.0029C20.9023 36.0029 17.9246 34.8051 15.6899 32.66C15.4953 32.4993 15.2471 32.4183 14.9951 32.433C14.7432 32.4477 14.5061 32.5572 14.3315 32.7394C14.1569 32.9216 14.0576 33.1631 14.0536 33.4154C14.0496 33.6678 14.1412 33.9123 14.3099 34.1C16.9166 36.5997 20.3884 37.9953 23.9999 37.9953C27.6115 37.9953 31.0833 36.5997 33.6899 34.1C33.8587 33.9123 33.9503 33.6678 33.9463 33.4154C33.9423 33.1631 33.843 32.9216 33.6684 32.7394C33.4937 32.5572 33.2567 32.4477 33.0047 32.433C32.7528 32.4183 32.5046 32.4993 32.3099 32.66Z" fill="#0086FF"/>
<path d="M31.4599 12.15C31.2345 12.0094 30.9625 11.9642 30.7037 12.0242C30.4448 12.0842 30.2205 12.2446 30.0799 12.47C29.9394 12.6954 29.8941 12.9675 29.9541 13.2263C30.0141 13.4851 30.1745 13.7094 30.3999 13.85C32.1192 14.9262 33.5358 16.4231 34.5156 18.1991C35.4955 19.9751 36.0063 21.9716 35.9999 24C35.9999 24.2652 36.1053 24.5196 36.2928 24.7071C36.4804 24.8946 36.7347 25 36.9999 25C37.2651 25 37.5195 24.8946 37.707 24.7071C37.8946 24.5196 37.9999 24.2652 37.9999 24C38.0005 21.633 37.4008 19.3045 36.2571 17.2321C35.1134 15.1598 33.4629 13.4113 31.4599 12.15Z" fill="#0086FF"/>
<path d="M15 24C15 25.78 15.5278 27.5201 16.5168 29.0001C17.5057 30.4802 18.9113 31.6337 20.5558 32.3149C22.2004 32.9961 24.01 33.1743 25.7558 32.8271C27.5016 32.4798 29.1053 31.6226 30.364 30.364C31.6226 29.1053 32.4798 27.5016 32.8271 25.7558C33.1743 24.01 32.9961 22.2004 32.3149 20.5558C31.6337 18.9113 30.4802 17.5057 29.0001 16.5168C27.5201 15.5278 25.78 15 24 15C21.6131 15 19.3239 15.9482 17.636 17.636C15.9482 19.3239 15 21.6131 15 24ZM24 17C25.3845 17 26.7378 17.4105 27.889 18.1797C29.0401 18.9489 29.9373 20.0421 30.4672 21.3212C30.997 22.6003 31.1356 24.0078 30.8655 25.3656C30.5954 26.7235 29.9287 27.9708 28.9497 28.9497C27.9708 29.9287 26.7235 30.5954 25.3656 30.8655C24.0078 31.1356 22.6003 30.997 21.3212 30.4672C20.0421 29.9373 18.9489 29.0401 18.1797 27.889C17.4105 26.7378 17 25.3845 17 24C17 22.1435 17.7375 20.363 19.0503 19.0503C20.363 17.7375 22.1435 17 24 17Z" fill="#0086FF"/>
</svg>
