<svg width="48" height="48" viewBox="0 0 48 48" fill="none" xmlns="http://www.w3.org/2000/svg">
<rect opacity="0.2" width="48" height="48" rx="16" fill="#25FF00"/>
<path d="M34.74 11H13.26C12.3954 11 11.5662 11.3435 10.9548 11.9548C10.3435 12.5662 10 13.3954 10 14.26V27.74C10 28.6046 10.3435 29.4338 10.9548 30.0452C11.5662 30.6565 12.3954 31 13.26 31H17.26L14.13 36.5C13.9974 36.7307 13.9619 37.0047 14.0313 37.2616C14.1007 37.5186 14.2693 37.7374 14.5 37.87C14.7307 38.0026 15.0047 38.0381 15.2616 37.9687C15.5186 37.8993 15.7374 37.7307 15.87 37.5L17.29 35H30.71L32.13 37.5C32.2626 37.7307 32.4814 37.8993 32.7384 37.9687C32.9953 38.0381 33.2693 38.0026 33.5 37.87C33.7307 37.7374 33.8993 37.5186 33.9687 37.2616C34.0381 37.0047 34.0026 36.7307 33.87 36.5L30.72 31H34.72C35.1498 31.0026 35.5759 30.9203 35.9737 30.7576C36.3715 30.595 36.7333 30.3553 37.0381 30.0523C37.3429 29.7493 37.5849 29.389 37.7499 28.9922C37.915 28.5954 38 28.1698 38 27.74V14.26C38 13.3954 37.6565 12.5662 37.0452 11.9548C36.4338 11.3435 35.6046 11 34.74 11ZM29.56 33H18.44L19.58 31H28.42L29.56 33ZM36 27.74C35.9974 28.0734 35.8638 28.3923 35.6281 28.6281C35.3923 28.8638 35.0734 28.9974 34.74 29H13.26C12.9266 28.9974 12.6077 28.8638 12.3719 28.6281C12.1362 28.3923 12.0026 28.0734 12 27.74V14.26C12.0026 13.9266 12.1362 13.6077 12.3719 13.3719C12.6077 13.1362 12.9266 13.0026 13.26 13H34.74C35.0734 13.0026 35.3923 13.1362 35.6281 13.3719C35.8638 13.6077 35.9974 13.9266 36 14.26V27.74Z" fill="#25FF00"/>
<path d="M32.2201 18.38L28.9201 22.5L26.7101 20.29C26.6085 20.1885 26.4863 20.1101 26.3517 20.06C26.2171 20.01 26.0733 19.9895 25.9301 20C25.7868 20.0103 25.6474 20.0514 25.5215 20.1204C25.3955 20.1895 25.2859 20.2848 25.2001 20.4L23.1101 23.18L19.8701 17.5C19.7891 17.3586 19.6748 17.2391 19.5371 17.152C19.3994 17.0649 19.2425 17.0127 19.0801 17C18.9166 16.988 18.7526 17.0164 18.6026 17.0826C18.4527 17.1489 18.3213 17.251 18.2201 17.38L14.2201 22.38C14.0566 22.5872 13.9816 22.8507 14.0116 23.113C14.0416 23.3752 14.174 23.615 14.3801 23.78C14.5861 23.9446 14.8487 24.0213 15.1109 23.9932C15.3731 23.9651 15.6136 23.8345 15.7801 23.63L18.8601 19.77L22.1301 25.5C22.2129 25.6441 22.3303 25.7653 22.4718 25.8526C22.6132 25.9399 22.7741 25.9905 22.9401 26H23.0001C23.1553 26 23.3084 25.9639 23.4473 25.8944C23.5861 25.825 23.7069 25.7242 23.8001 25.6L26.1101 22.52L28.2901 24.71C28.3905 24.8102 28.5111 24.8879 28.6439 24.9379C28.7766 24.9879 28.9185 25.009 29.0601 25C29.1992 24.9919 29.3352 24.9548 29.4592 24.8911C29.5832 24.8274 29.6925 24.7385 29.7801 24.63L33.7801 19.63C33.8671 19.5281 33.9327 19.4098 33.9731 19.2821C34.0135 19.1544 34.0278 19.0199 34.0152 18.8865C34.0026 18.7532 33.9633 18.6237 33.8997 18.5058C33.8361 18.3879 33.7494 18.284 33.6449 18.2003C33.5404 18.1165 33.4201 18.0546 33.2912 18.0182C33.1622 17.9818 33.0273 17.9717 32.8944 17.9885C32.7615 18.0053 32.6334 18.0486 32.5175 18.1158C32.4017 18.1831 32.3005 18.2729 32.2201 18.38Z" fill="#25FF00"/>
</svg>
