<svg width="117" height="19" viewBox="0 0 117 19" fill="none" xmlns="http://www.w3.org/2000/svg">
<path d="M9.55364 19C3.99744 19 0 15.0987 0 9.5C0 3.90133 3.99744 0 9.55364 0C14.0288 0 17.7245 2.83733 18.4033 6.89067L14.5064 7.34667C14.0036 5.11733 11.9672 3.52133 9.62906 3.52133C6.41099 3.52133 4.17343 5.95333 4.17343 9.5C4.17343 13.0467 6.43613 15.504 9.62906 15.504C11.9169 15.504 13.9533 13.9333 14.5064 11.7547L18.4285 12.2867C17.7999 16.2387 14.1042 19 9.55364 19Z" fill="white"/>
<path d="M24.3761 18.5187H20.2027V0.481333H24.3761V7.47333H31.8179V0.481333H35.9913V18.5187H31.8179V10.868H24.3761V18.5187Z" fill="white"/>
<path d="M41.4837 18.5187H37.26L43.319 0.481333H49.3529L55.3616 18.5187H51.1379L50.0317 15.3013H42.5899L41.4837 18.5187ZM46.2102 4.07867L43.495 12.2107H49.1266L46.4616 4.07867H46.2102Z" fill="white"/>
<path d="M63.341 18.5187H59.1675V3.97733H53.4605V0.481333H69.048V3.97733H63.341V18.5187Z" fill="white"/>
<path d="M78.9324 18.5187H74.759V3.97733H69.0519V0.481333H84.6394V3.97733H78.9324V18.5187Z" fill="white"/>
<path d="M99.1616 18.5187H85.7111V0.481333H98.9102V3.876H89.7839V7.85333H98.2314V10.8173H89.7839V15.124H99.1616V18.5187Z" fill="white"/>
<path d="M105.083 18.5187H100.91V0.481333H109.458C113.656 0.481333 116.422 2.83733 116.422 6.40933C116.422 9.37333 114.335 11.5013 111.469 11.856L111.268 11.8813L117 18.5187H112.223L107.094 12.1853H105.083V18.5187ZM105.083 3.67333V9.22133H108.905C110.916 9.22133 112.273 8.15733 112.273 6.43467C112.273 4.712 110.891 3.67333 108.905 3.67333H105.083Z" fill="white"/>
</svg>
