<svg width="32" height="32" viewBox="0 0 32 32" fill="none" xmlns="http://www.w3.org/2000/svg">
<path d="M4 4V10.6667H10.6667" stroke="#EDEFF3" stroke-width="2" stroke-linecap="round" stroke-linejoin="round"/>
<path d="M4.06667 17.3333C4.36201 20.0077 5.5476 22.5053 7.43304 24.4249C9.31849 26.3445 11.7944 27.5747 14.4631 27.918C17.1317 28.2614 19.8384 27.6978 22.1483 26.3179C24.4582 24.938 26.2373 22.8218 27.1999 20.3092C28.1625 17.7966 28.2528 15.0334 27.4562 12.4634C26.6596 9.89333 25.0223 7.66557 22.8074 6.13788C20.5925 4.61019 17.9284 3.87122 15.243 4.03966C12.5576 4.20809 10.0067 5.27415 8 7.06663L4 10.6666" stroke="#EDEFF3" stroke-width="2" stroke-linecap="round" stroke-linejoin="round"/>
<path d="M16 9.33337V16L21.3333 18.6667" stroke="#EDEFF3" stroke-width="2" stroke-linecap="round" stroke-linejoin="round"/>
</svg>
