<svg width="48" height="48" viewBox="0 0 48 48" fill="none" xmlns="http://www.w3.org/2000/svg">
<rect opacity="0.2" width="48" height="48" rx="16" fill="#00FFFD"/>
<path d="M29.0001 29C30.5026 28.9987 31.9744 28.5743 33.247 27.7754C34.5195 26.9764 35.5413 25.8353 36.1954 24.4826C36.8495 23.1299 37.1094 21.6203 36.9454 20.1268C36.7814 18.6332 36.2001 17.216 35.268 16.0375C34.336 14.859 33.0909 13.9667 31.6753 13.463C30.2597 12.9593 28.7309 12.8644 27.2638 13.1892C25.7968 13.514 24.4509 14.2453 23.3803 15.2996C22.3096 16.3538 21.5575 17.6882 21.2101 19.15C21.205 19.2032 21.205 19.2568 21.2101 19.31C19.6672 18.8687 18.0273 18.9017 16.5034 19.4045C14.9795 19.9074 13.6421 20.8569 12.6648 22.1297C11.6876 23.4025 11.1157 24.9398 11.0235 26.5419C10.9313 28.144 11.323 29.7367 12.1477 31.1133C12.9725 32.4898 14.1922 33.5865 15.6483 34.2609C17.1044 34.9353 18.7297 35.1561 20.313 34.8948C21.8963 34.6335 23.3644 33.9021 24.5266 32.7956C25.6888 31.689 26.4914 30.2586 26.8301 28.69C27.5355 28.8937 28.2658 28.998 29.0001 29ZM23.1601 19.62C23.4335 18.4348 24.0608 17.3607 24.9586 16.5401C25.8564 15.7195 26.9824 15.1912 28.1874 15.0251C29.3923 14.8591 30.6193 15.0632 31.7056 15.6104C32.7919 16.1575 33.6863 17.022 34.2701 18.089C34.8539 19.1561 35.0997 20.3754 34.9747 21.5853C34.8498 22.7952 34.3601 23.9385 33.5705 24.8638C32.7809 25.789 31.7288 26.4524 30.5536 26.7661C29.3784 27.0797 28.1357 27.0288 26.9901 26.62C26.9301 25.2616 26.525 23.9409 25.8129 22.7826C25.1007 21.6243 24.1051 20.6666 22.9201 20C23.0242 19.8922 23.1029 19.7623 23.1501 19.62H23.1601ZM19.0001 33C17.8134 33 16.6533 32.6481 15.6666 31.9888C14.6799 31.3295 13.9109 30.3925 13.4568 29.2961C13.0027 28.1997 12.8838 26.9933 13.1153 25.8295C13.3469 24.6656 13.9183 23.5965 14.7574 22.7574C15.5965 21.9182 16.6656 21.3468 17.8295 21.1153C18.9934 20.8838 20.1998 21.0026 21.2962 21.4567C22.3925 21.9108 23.3296 22.6799 23.9889 23.6666C24.6482 24.6533 25.0001 25.8133 25.0001 27C25.0001 28.5913 24.3679 30.1174 23.2427 31.2426C22.1175 32.3679 20.5914 33 19.0001 33Z" fill="#00FFFD"/>
<path d="M12 19.9999C12.2652 19.9999 12.5196 19.8946 12.7071 19.707C12.8946 19.5195 13 19.2652 13 18.9999V16.8099C13 16.5951 13.0853 16.3891 13.2372 16.2372C13.3891 16.0853 13.5952 15.9999 13.81 15.9999H16.59L16.29 16.2899C16.1963 16.3829 16.1219 16.4935 16.0711 16.6154C16.0203 16.7372 15.9942 16.8679 15.9942 16.9999C15.9942 17.132 16.0203 17.2627 16.0711 17.3845C16.1219 17.5064 16.1963 17.617 16.29 17.7099C16.383 17.8037 16.4936 17.8781 16.6154 17.9288C16.7373 17.9796 16.868 18.0057 17 18.0057C17.132 18.0057 17.2627 17.9796 17.3846 17.9288C17.5064 17.8781 17.617 17.8037 17.71 17.7099L19.71 15.7099C19.8037 15.617 19.8781 15.5064 19.9289 15.3845C19.9797 15.2627 20.0058 15.132 20.0058 14.9999C20.0058 14.8679 19.9797 14.7372 19.9289 14.6154C19.8781 14.4935 19.8037 14.3829 19.71 14.2899L17.71 12.2899C17.5217 12.1016 17.2663 11.9958 17 11.9958C16.7337 11.9958 16.4783 12.1016 16.29 12.2899C16.1017 12.4782 15.9959 12.7336 15.9959 12.9999C15.9959 13.2662 16.1017 13.5216 16.29 13.7099L16.59 13.9999H13.81C13.0647 13.9999 12.35 14.296 11.823 14.823C11.2961 15.3499 11 16.0647 11 16.8099V18.9999C11 19.2652 11.1054 19.5195 11.2929 19.707C11.4804 19.8946 11.7348 19.9999 12 19.9999Z" fill="#00FFFD"/>
<path d="M35.9999 28C35.7347 28 35.4804 28.1054 35.2928 28.2929C35.1053 28.4804 34.9999 28.7348 34.9999 29V31.19C34.9999 31.4048 34.9146 31.6109 34.7627 31.7628C34.6108 31.9147 34.4048 32 34.1899 32H31.4099L31.7099 31.71C31.8982 31.5217 32.004 31.2663 32.004 31C32.004 30.7337 31.8982 30.4783 31.7099 30.29C31.5216 30.1017 31.2662 29.9959 30.9999 29.9959C30.7336 29.9959 30.4782 30.1017 30.2899 30.29L28.2899 32.29C28.1962 32.383 28.1218 32.4936 28.071 32.6154C28.0203 32.7373 27.9941 32.868 27.9941 33C27.9941 33.132 28.0203 33.2627 28.071 33.3846C28.1218 33.5064 28.1962 33.617 28.2899 33.71L30.2899 35.71C30.3829 35.8037 30.4935 35.8781 30.6154 35.9289C30.7372 35.9797 30.8679 36.0058 30.9999 36.0058C31.132 36.0058 31.2627 35.9797 31.3845 35.9289C31.5064 35.8781 31.617 35.8037 31.7099 35.71C31.8037 35.617 31.8781 35.5064 31.9288 35.3846C31.9796 35.2627 32.0057 35.132 32.0057 35C32.0057 34.868 31.9796 34.7373 31.9288 34.6154C31.8781 34.4936 31.8037 34.383 31.7099 34.29L31.4099 34H34.1899C34.9352 34 35.6499 33.7039 36.1769 33.177C36.7039 32.65 36.9999 31.9353 36.9999 31.19V29C36.9999 28.7348 36.8946 28.4804 36.707 28.2929C36.5195 28.1054 36.2652 28 35.9999 28Z" fill="#00FFFD"/>
<path d="M19.83 23.4499C19.7385 23.3138 19.6149 23.2023 19.4702 23.1251C19.3255 23.048 19.164 23.0077 19 23.0077C18.836 23.0077 18.6745 23.048 18.5297 23.1251C18.385 23.2023 18.2614 23.3138 18.17 23.4499L16.17 26.4499C16.0624 26.6132 16.0051 26.8044 16.0051 26.9999C16.0051 27.1954 16.0624 27.3866 16.17 27.5499L18.17 30.5499C18.2614 30.686 18.385 30.7976 18.5297 30.8747C18.6745 30.9518 18.836 30.9922 19 30.9922C19.164 30.9922 19.3255 30.9518 19.4702 30.8747C19.6149 30.7976 19.7385 30.686 19.83 30.5499L21.83 27.5499C21.9375 27.3866 21.9948 27.1954 21.9948 26.9999C21.9948 26.8044 21.9375 26.6132 21.83 26.4499L19.83 23.4499ZM19 28.1999L18.2 26.9999L19 25.7999L19.8 26.9999L19 28.1999Z" fill="#00FFFD"/>
</svg>
